<svg width="21" height="28" viewBox="0 0 21 28" fill="none" xmlns="http://www.w3.org/2000/svg">
<g clip-path="url(#clip0_2383_10629)">
<path d="M11.4846 1.44691C11.0867 0.99764 10.763 0.508731 10.5067 0C10.2437 0.508731 9.92004 0.99764 9.5289 1.44691C7.04721 4.25484 3.72254 5.19302 0 1.90278V21.0297C0.0404624 23.2034 1.7264 23.9368 3.2842 24.505L4.50482 24.8419C6.33237 25.0731 8.09923 25.5158 10.5067 28C12.9143 25.5158 14.6811 25.0731 16.5087 24.8419L17.7293 24.505C19.2871 23.9302 20.973 23.1968 21.0135 21.0297V1.90278C17.2775 5.19302 13.9528 4.25484 11.4846 1.44691Z" fill="white"/>
<path d="M11.4982 2.66226C11.1273 2.24602 10.8238 1.79015 10.581 1.31445C10.3383 1.79015 10.0348 2.24602 9.6639 2.66226C7.39126 5.1993 3.56756 5.53626 0.9375 3.49473V20.3687C0.971219 22.331 2.51553 22.9983 3.94521 23.5136L5.05792 23.8175C6.73037 24.0289 8.35561 24.432 10.5676 26.6849C10.5676 26.6783 10.5743 26.6783 10.5743 26.6717C10.5743 26.6783 10.581 26.6783 10.581 26.6849C12.793 24.432 14.4182 24.0289 16.0907 23.8175L17.2034 23.5136C18.6263 22.9983 20.1706 22.331 20.2111 20.3687V3.49473C17.581 5.53626 13.7573 5.1993 11.4982 2.66226Z" fill="#1D3767"/>
<path d="M12.9415 4.59999C12.9415 4.59999 9.97421 4.17715 8.55803 6.42349C7.15533 8.64341 8.14666 10.6585 8.14666 10.6585C8.14666 10.6585 11.1274 11.1474 12.7054 8.76233C14.0137 6.77366 12.9415 4.59999 12.9415 4.59999Z" fill="white"/>
<path d="M9.75781 6.29724L11.0863 6.96453C11.1403 6.91168 11.1875 6.85882 11.2414 6.80597L9.91292 6.13867C9.85223 6.19153 9.80502 6.24438 9.75781 6.29724Z" fill="#1D3767"/>
<path d="M9.30664 6.85762L10.6014 7.50509C10.6486 7.44563 10.7026 7.38617 10.7565 7.3201L9.44826 6.66602C9.40105 6.72548 9.35385 6.79155 9.30664 6.85762Z" fill="#1D3767"/>
<path d="M8.96289 7.43229L10.2105 8.05995C10.2442 8.00048 10.2847 7.94102 10.3184 7.88156L9.0573 7.25391C9.02358 7.31337 8.98987 7.37283 8.96289 7.43229Z" fill="#1D3767"/>
<path d="M11.0745 5.19336C11.007 5.233 10.9463 5.27925 10.8789 5.3255L12.1602 5.96637C12.2209 5.91351 12.2816 5.86726 12.3356 5.82101L11.0745 5.19336Z" fill="#1D3767"/>
<path d="M10.2715 5.80189L11.5933 6.46258C11.654 6.40972 11.7146 6.35026 11.7753 6.29741L10.4603 5.63672C10.3996 5.68957 10.3322 5.74904 10.2715 5.80189Z" fill="#1D3767"/>
<path d="M11.7406 5.63639C12.4959 4.98891 13.1163 4.57268 13.1163 4.57268L13.0017 4.5C13.0017 4.5 12.3206 4.73785 11.4102 5.47782L11.7406 5.63639Z" fill="#1D3767"/>
<path d="M9.52943 7.58594C8.60554 9.02624 8.03906 10.6846 8.03906 10.6846L8.17394 10.7639C8.17394 10.7639 8.88203 9.06588 9.79918 7.71808L9.52943 7.58594Z" fill="#1D3767"/>
<path d="M18.0995 5.58203L18.4232 6.47396H19.4347L18.6255 7.10162L18.9357 8.06622L18.0995 7.44517L17.2633 8.03319L17.587 7.09501L16.8047 6.47396H17.7825L18.0995 5.58203Z" fill="white"/>
<path d="M18.0995 8.50195L18.4232 9.39388H19.4347L18.6255 10.0281L18.9357 10.9928L18.0995 10.3651L17.2633 10.9531L17.587 10.0215L16.8047 9.39388H17.7825L18.0995 8.50195Z" fill="white"/>
<path d="M14.8964 8.50195L15.2133 9.39388H16.2316L15.4224 10.0281L15.7326 10.9928L14.8964 10.3651L14.0669 10.9531L14.3838 10.0215L13.6016 9.39388H14.5794L14.8964 8.50195Z" fill="white"/>
<path d="M14.869 5.58203L15.1927 6.47396H16.2043L15.395 7.10162L15.7052 8.06622L14.869 7.44517L14.0395 8.03319L14.3565 7.09501L13.5742 6.47396H14.5521L14.869 5.58203Z" fill="white"/>
<path d="M6.24402 5.58203L6.56097 6.47396H7.57928L6.77003 7.10162L7.0735 8.06622L6.24402 7.44517L5.40779 8.03319L5.73149 7.09501L4.94922 6.47396H5.92032L6.24402 5.58203Z" fill="white"/>
<path d="M6.24402 8.50195L6.56097 9.39388H7.57928L6.77003 10.0281L7.0735 10.9928L6.24402 10.3651L5.40779 10.9531L5.73149 10.0215L4.94922 9.39388H5.92032L6.24402 8.50195Z" fill="white"/>
<path d="M3.04089 8.50195L3.35785 9.39388H4.36941L3.5669 10.0281L3.87037 10.9928L3.04089 10.3651L2.20467 10.9531L2.52837 10.0215L1.74609 9.39388H2.71719L3.04089 8.50195Z" fill="white"/>
<path d="M3.01355 5.58203L3.33725 6.47396H4.34881L3.53956 7.10162L3.84977 8.06622L3.01355 7.44517L2.18407 8.03319L2.50102 7.09501L1.71875 6.47396H2.69659L3.01355 5.58203Z" fill="white"/>
<path d="M1.89453 11.6406V19.7473C1.92825 21.551 3.31746 22.1588 4.59877 22.6345L5.60359 22.9186C7.11418 23.1102 8.57758 23.4802 10.567 25.5481C10.567 25.5415 10.5737 25.5415 10.5737 25.5349C10.5737 25.5415 10.5805 25.5415 10.5805 25.5481C12.5699 23.4802 14.0333 23.1102 15.5439 22.9186L16.5487 22.6345C17.83 22.1588 19.2259 21.551 19.2529 19.7473V11.6406H1.89453Z" fill="white"/>
<path d="M11.0925 12.7188H9.5549H9.00866V14.0005H9.5549V16.3658V17.6475V19.5899V20.2374V21.3672V21.4266C9.21772 21.387 8.92773 21.3672 8.92773 21.3672V22.53C8.92773 22.53 9.65606 22.6093 10.1686 22.7612C10.5867 22.8868 11.605 23.3492 11.605 23.3492V22.0675C11.605 22.0675 11.4094 21.942 11.0857 21.8098V21.3738V19.5965V17.6541H11.8882L12.0838 18.1826H12.947V17.6541V17.0132V16.9736V16.3724V15.8042H12.0838L11.8747 16.3724H11.0857V14.0071H12.0973L12.4277 14.7603H13.4663V14.0071V13.5446V12.7188H11.0925Z" fill="#B52025"/>
<path d="M8.01789 12.718H6.48706H6.04198V13.9997H6.48706V17.138L4.88205 12.6453V12.6387H3.34448H2.90614V13.9204H3.34448V17.4683V19.5693C2.99381 19.5495 2.68359 19.5495 2.68359 19.5495L2.79149 20.8576C2.79149 20.8576 3.52656 20.8841 4.05257 21.0162C4.47743 21.1219 5.54294 21.5646 5.54294 21.5646L5.42155 20.1177C5.42155 20.1177 5.2125 19.9921 4.88205 19.8666V17.4617V17.1908L6.54101 21.8553L8.01789 22.3046V22.2979V21.4457V13.9997H8.44275V12.718H8.01789Z" fill="#B52025"/>
<path d="M17.1623 18.0295V19.853C16.7577 19.9389 16.3194 20.0446 15.9485 20.1437V20.0248V18.5911V13.9927L16.3935 13.7945V12.7109H15.9485H15.1999H15.1594H14.4109H13.9658V13.7945L14.4109 13.9927V18.5911V20.0248V20.7449C14.1479 20.8771 13.9253 21.0092 13.75 21.1149V22.5816C14.2355 22.3041 15.4427 21.6368 16.0294 21.4056C17.1556 20.9629 18.3695 20.8572 18.3695 20.8572V20.7449V19.6019V18.0229H17.1623V18.0295Z" fill="#B52025"/>
</g>
<defs>
<clipPath id="clip0_2383_10629">
<rect width="21" height="28" fill="white"/>
</clipPath>
</defs>
</svg>
