<svg width="55" height="13" viewBox="0 0 55 13" fill="none" xmlns="http://www.w3.org/2000/svg">
<g clip-path="url(#clip0_2345_11312)">
<path d="M0.00871297 -0.0614646C1.28475 -0.0623613 2.56078 -0.063258 3.83771 -0.0614646C3.82602 1.61356 3.83951 3.28769 3.82962 4.96271C4.19292 4.44711 4.66682 3.97904 5.2855 3.78804C6.39518 3.44012 7.73686 3.68223 8.53179 4.56906C9.33122 5.45769 9.6028 6.68257 9.63607 7.84558C9.65495 9.01218 9.54255 10.2344 8.96163 11.271C8.56596 12 7.87444 12.5765 7.05522 12.7577C6.23781 12.9397 5.30439 12.9137 4.59308 12.4259C4.10479 12.0986 3.83501 11.5561 3.58592 11.0432C3.60211 11.5848 3.57154 12.1246 3.56074 12.6653C2.37643 12.6653 1.19212 12.6653 0.0078125 12.6653C0.0078125 8.42305 0.00781372 4.18079 0.00871297 -0.0614646Z" fill="#027B5B"/>
<path d="M21.0256 1.79098C22.3043 1.3803 23.566 0.917602 24.8447 0.507812C24.8339 1.61882 24.8411 2.73072 24.8402 3.84172C25.4211 3.84172 26.0029 3.84082 26.5857 3.84082C26.5785 4.68192 26.5848 5.52213 26.5803 6.36233C25.9984 6.37219 25.4148 6.34708 24.8339 6.37578C24.8519 7.24826 24.824 8.12074 24.8474 8.99323C24.8573 9.3815 25.0255 9.82088 25.4121 9.97511C25.8024 10.0594 26.2089 9.98138 26.5866 9.8684C26.5785 10.7113 26.5821 11.5551 26.583 12.398C25.5156 12.7289 24.3816 12.9629 23.2629 12.8015C22.5867 12.7029 21.9392 12.3415 21.5679 11.7604C21.1524 11.1318 21.04 10.3607 21.0121 9.6245C21.0094 8.53681 21.0121 7.45002 21.0112 6.36322C20.5652 6.36412 20.1201 6.35784 19.6749 6.37219C19.6587 5.5284 19.6695 4.68461 19.6695 3.83993C20.1165 3.84262 20.5634 3.84082 21.0112 3.84082C21.0202 3.15754 20.9923 2.47247 21.0256 1.79098Z" fill="#027B5B"/>
<path d="M27.4947 1.11438C28.7374 0.657069 30.0872 0.636446 31.3965 0.65169C32.5835 0.701905 33.8119 1.04534 34.7148 1.84519C35.909 2.88804 35.9584 5.02845 34.7022 6.03903C34.3811 6.30893 33.9998 6.49634 33.6024 6.62546C34.1788 6.82722 34.7534 7.10251 35.1509 7.58224C35.7885 8.31663 35.8901 9.37832 35.6599 10.292C35.4521 11.1296 34.8209 11.8093 34.061 12.1948C32.6816 12.9409 31.0503 12.9256 29.5306 12.7786C28.8175 12.7113 28.1152 12.5688 27.4245 12.3831C27.3958 11.4676 27.4245 10.5503 27.4102 9.63567C28.5954 10.0275 29.8948 10.2876 31.1312 9.99165C31.9604 9.78362 32.0026 8.49866 31.2625 8.14805C30.4802 7.75978 29.5639 7.90953 28.732 8.01982C28.7365 7.15541 28.7329 6.2901 28.7338 5.42389C29.3795 5.45438 30.0315 5.49115 30.6717 5.38444C31.0584 5.31629 31.4963 5.12261 31.6025 4.70833C31.6618 4.37656 31.6258 3.99905 31.3956 3.73721C31.1339 3.43234 30.7203 3.31218 30.3309 3.28887C29.3741 3.23955 28.411 3.40544 27.5154 3.73721C27.4839 2.86473 27.5199 1.98866 27.4947 1.11438Z" fill="#F9DC1C"/>
<path d="M37.6784 2.48889C38.5696 1.39133 39.9481 0.760955 41.3492 0.666802C42.6513 0.613897 43.9777 0.632728 45.2447 0.977059C45.2267 1.88003 45.2447 2.7839 45.2348 3.68687C44.2034 3.39903 43.1279 3.19548 42.0533 3.31564C41.4004 3.40351 40.7512 3.73888 40.4193 4.32442C40.1873 4.71717 40.1352 5.17807 40.101 5.62373C40.8762 5.01936 41.9076 4.87678 42.8644 4.93507C44.0757 5.01308 45.2249 5.74568 45.7824 6.8235C46.1997 7.62694 46.2725 8.57026 46.1439 9.4562C46.0073 10.395 45.5019 11.2828 44.7348 11.8504C43.6063 12.7282 42.0964 12.9865 40.7017 12.8062C39.4841 12.6583 38.3439 12.0136 37.5885 11.0523C36.7036 9.98614 36.308 8.5882 36.2819 7.21895C36.2459 5.55827 36.5777 3.79089 37.6784 2.48889Z" fill="#F9DC1C"/>
<path d="M47.0307 0.852235C49.5315 0.851338 52.0323 0.851338 54.5322 0.852235C54.5295 1.75969 54.5322 2.66714 54.5304 3.5746C53.1923 3.58536 51.8524 3.55577 50.5152 3.58984C50.5278 4.19063 50.5305 4.7941 50.5143 5.39578C51.2733 5.38144 52.0601 5.26756 52.7921 5.52939C53.8389 5.8791 54.6518 6.81256 54.8955 7.88232C55.1275 8.91262 55.0663 10.0568 54.5268 10.9849C54.0196 11.8547 53.0853 12.3864 52.1303 12.633C50.4064 13.0616 48.5971 12.8294 46.9075 12.3649C46.8823 11.4637 46.903 10.5625 46.8958 9.66136C47.9803 9.93395 49.1493 10.2003 50.2473 9.84787C51.1609 9.56541 51.2967 8.20244 50.5764 7.64828C50.1439 7.32368 49.5836 7.24477 49.0567 7.22235C48.4668 7.21338 47.8759 7.29139 47.3022 7.4268C47.1799 7.45011 47.0738 7.52005 46.9767 7.59268C47.0046 7.49495 47.0235 7.39541 47.0316 7.29498C47.0289 5.1474 47.0298 2.99892 47.0307 0.852235Z" fill="#F9DC1C"/>
<path d="M11.4339 4.89337C12.4078 3.91866 13.8556 3.63261 15.1891 3.63889C16.1981 3.6102 17.2646 3.86306 18.0227 4.56069C18.8086 5.28432 19.1728 6.3478 19.3158 7.38079C19.4129 8.00489 19.4012 8.63796 19.3994 9.26744C17.627 9.26744 15.8555 9.26744 14.0822 9.26744C14.1109 9.57859 14.1748 9.90857 14.4131 10.1319C14.8357 10.5309 15.4517 10.5847 16.0048 10.6214C16.9733 10.6376 17.9777 10.5336 18.8419 10.0637C18.8347 10.8241 18.8419 11.5854 18.8356 12.3467C17.7529 12.726 16.5992 12.8354 15.4589 12.856C14.1658 12.8793 12.7765 12.6516 11.7657 11.7871C10.8242 10.9936 10.4069 9.74806 10.3521 8.55098C10.2685 7.26602 10.4924 5.84565 11.4339 4.89337Z" fill="#027B5B"/>
<path d="M14.4244 6.00687C14.7301 5.56569 15.4846 5.5379 15.7885 5.99611C16.0619 6.41128 16.079 6.93136 16.088 7.41109C15.4216 7.41199 14.7562 7.41199 14.0898 7.41199C14.1078 6.93136 14.1348 6.41397 14.4244 6.00687Z" fill="#444444"/>
<path d="M4.47027 6.28528C4.82907 6.1696 5.25441 6.34715 5.41718 6.68969C5.65188 7.15238 5.64379 7.6895 5.65098 8.19613C5.633 8.70366 5.60782 9.25244 5.31736 9.69003C5.0359 10.1231 4.29672 10.124 4.02514 9.67926C3.76706 9.26589 3.74098 8.75657 3.73828 8.28311C3.73828 7.8258 3.73738 7.35772 3.87317 6.91655C3.9604 6.63051 4.16632 6.35701 4.47027 6.28528Z" fill="#444444"/>
<path d="M40.9184 7.23339C41.4588 7.03612 42.1476 7.20021 42.4489 7.71222C42.8167 8.33811 42.7915 9.1819 42.4012 9.79076C42.0164 10.4328 40.9768 10.5081 40.5002 9.93423C40.0893 9.46705 40.0506 8.78825 40.1774 8.20451C40.2547 7.79382 40.5065 7.38045 40.9184 7.23339Z" fill="#444444"/>
</g>
<defs>
<clipPath id="clip0_2345_11312">
<rect width="55" height="13" fill="white"/>
</clipPath>
</defs>
</svg>
