<svg width="103" height="37" viewBox="0 0 103 37" fill="none" xmlns="http://www.w3.org/2000/svg">
<g clip-path="url(#clip0_2387_14472)">
<path d="M100.181 10.0874L96.5365 16.0552L94.2137 16.6558L89.0995 15.2855L85.3303 13.0525C85.3303 13.0525 85.2024 7.52598 85.1691 6.30514L85.158 6.06194C85.1554 5.90839 85.2167 5.76102 85.3336 5.65048L86.6567 5.48077L89.3338 7.44286L92.643 4.18037L94.6396 4.71536L95.8742 9.19537L99.1738 8.83471L100.181 10.0874Z" fill="#FFD400"/>
<path d="M100.182 10.0888L96.5378 16.0566L94.215 16.6572L90.6289 15.6964L93.6426 4.44922L94.6409 4.71671L95.8755 9.19672L99.175 8.8361L100.182 10.0888Z" fill="#FDBF00"/>
<path d="M85.3317 13.0531L84.9223 14.5812C84.8459 14.8664 85.0099 15.1507 85.2952 15.2271L95.4827 17.9568C95.768 18.0333 96.0521 17.8691 96.1285 17.584L96.538 16.0558L85.3317 13.0531ZM94.2105 2.32948C93.3649 2.10289 92.4995 2.60251 92.273 3.44814C92.0409 4.31408 92.5766 5.16735 93.3916 5.38573C94.2373 5.61231 95.1054 5.1025 95.3292 4.26706C95.5558 3.42143 95.0562 2.55606 94.2105 2.32948Z" fill="#FDBF00"/>
<path d="M99.7365 10.3641C99.3058 10.2487 98.9751 9.98039 98.7724 9.62908C98.5613 9.24041 98.51 8.82904 98.6179 8.42656C98.8437 7.58395 99.7129 7.08213 100.555 7.3079C101.398 7.53366 101.9 8.40291 101.674 9.24548C101.448 10.0881 100.579 10.5899 99.7365 10.3641Z" fill="#FF9F00"/>
<path d="M85.4065 6.5243C84.5639 6.29853 84.062 5.42929 84.2878 4.58672C84.5136 3.74414 85.3828 3.24229 86.2254 3.46805C87.068 3.69382 87.5698 4.56306 87.3441 5.40564C87.1156 6.25806 86.2484 6.7499 85.4065 6.5243Z" fill="#FDBF00"/>
<path d="M93.3908 5.3868L94.2098 2.33055C95.0554 2.55714 95.555 3.42251 95.3284 4.26814C95.1046 5.10358 94.2365 5.61339 93.3908 5.3868ZM96.5372 16.0569L96.1277 17.585C96.0513 17.8702 95.7672 18.0344 95.4819 17.9579L90.3881 16.5931L90.9341 14.5556L96.5372 16.0569ZM94.6835 10.6684C94.6742 10.4585 94.5468 10.2825 94.3614 10.2001L93.264 9.73132L93.0249 8.58617C92.9769 8.3987 92.818 8.25776 92.6347 8.20864C92.4514 8.15952 92.2434 8.20216 92.108 8.34049L91.3284 9.21267L90.1437 9.06992C89.942 9.04859 89.7436 9.13731 89.6306 9.3145C89.5305 9.48429 89.5268 9.70169 89.634 9.87227L90.2388 10.8751L89.7504 11.9236C89.6706 12.0987 89.6901 12.3114 89.8204 12.4774C89.9431 12.6304 90.1544 12.6978 90.3391 12.66L91.5101 12.406L92.397 13.2115C92.5456 13.3495 92.7548 13.3837 92.9378 13.3127C93.1334 13.2341 93.2567 13.0597 93.2752 12.868L93.3765 11.7159L94.4017 11.1498C94.5798 11.0557 94.6854 10.8656 94.6835 10.6685L94.6835 10.6684Z" fill="#FF9F00"/>
<path d="M92.3971 13.2098L91.5101 12.4044L92.6348 8.20703C92.8181 8.25615 92.9769 8.39709 93.025 8.58456L93.2641 9.72971L94.3615 10.1985C94.5468 10.2808 94.6742 10.4569 94.6835 10.6668C94.6853 10.8639 94.5797 11.054 94.4017 11.1482L93.3765 11.7143L93.2752 12.8665C93.2567 13.0581 93.1335 13.2325 92.9377 13.3111C92.7549 13.3821 92.5457 13.3479 92.3971 13.2099L92.3971 13.2098Z" fill="#FF7816"/>
</g>
<g clip-path="url(#clip1_2387_14472)">
<path d="M0.0111409 16.5953C1.95999 16.594 3.90884 16.5926 5.85907 16.5953C5.84121 19.1723 5.86181 21.7479 5.84671 24.3248C6.40156 23.5316 7.12534 22.8115 8.07024 22.5177C9.76501 21.9824 11.8141 22.3549 13.0282 23.7192C14.2492 25.0863 14.6639 26.9708 14.7147 28.76C14.7436 30.5548 14.5719 32.4351 13.6847 34.0298C13.0804 35.1514 12.0243 36.0384 10.7731 36.3171C9.52467 36.5971 8.09908 36.5571 7.01272 35.8067C6.26697 35.3031 5.85495 34.4685 5.47452 33.6794C5.49924 34.5127 5.45254 35.3431 5.43606 36.175C3.6273 36.175 1.81853 36.175 0.00976562 36.175C0.00976562 29.6485 0.00976749 23.1219 0.0111409 16.5953Z" fill="#027B5B"/>
<path d="M32.1116 19.4507C34.0646 18.8188 35.9915 18.107 37.9444 17.4766C37.928 19.1858 37.9389 20.8964 37.9376 22.6057C38.8248 22.6057 39.7134 22.6043 40.6033 22.6043C40.5924 23.8983 40.602 25.1909 40.5951 26.4835C39.7065 26.4987 38.8152 26.4601 37.928 26.5042C37.9554 27.8465 37.9129 29.1888 37.9486 30.531C37.9637 31.1284 38.2205 31.8044 38.8111 32.0416C39.4071 32.1713 40.0279 32.0513 40.6047 31.8775C40.5924 33.1742 40.5978 34.4724 40.5992 35.7691C38.969 36.2782 37.2371 36.6382 35.5286 36.3899C34.4958 36.2382 33.507 35.6822 32.9398 34.7883C32.3053 33.8212 32.1336 32.6348 32.091 31.5022C32.0869 29.8289 32.091 28.1569 32.0896 26.4849C31.4084 26.4863 30.7286 26.4766 30.0488 26.4987C30.0241 25.2005 30.0405 23.9024 30.0405 22.6029C30.7231 22.607 31.4057 22.6043 32.0896 22.6043C32.1034 21.5531 32.0608 20.4991 32.1116 19.4507Z" fill="#027B5B"/>
<path d="M41.9943 18.4082C43.8924 17.7047 45.9538 17.673 47.9535 17.6964C49.7664 17.7737 51.6425 18.302 53.0213 19.5326C54.8452 21.137 54.9208 24.4299 53.0021 25.9846C52.5118 26.3999 51.9295 26.6882 51.3224 26.8868C52.2028 27.1972 53.0804 27.6207 53.6874 28.3588C54.6612 29.4886 54.8164 31.122 54.4648 32.5277C54.1475 33.8162 53.1834 34.8619 52.0229 35.4551C49.9161 36.6029 47.4247 36.5794 45.1037 36.3532C44.0146 36.2497 42.942 36.0304 41.8872 35.7448C41.8433 34.3363 41.8872 32.925 41.8652 31.5179C43.6754 32.1208 45.6599 32.5208 47.5484 32.0656C48.8146 31.7455 48.8792 29.7687 47.7489 29.2293C46.554 28.6319 45.1545 28.8623 43.8841 29.032C43.891 27.7021 43.8855 26.3709 43.8869 25.0383C44.873 25.0852 45.8687 25.1417 46.8465 24.9776C47.4371 24.8727 48.106 24.5747 48.268 23.9374C48.3587 23.427 48.3037 22.8462 47.9521 22.4434C47.5525 21.9743 46.9207 21.7895 46.326 21.7536C44.8647 21.6777 43.3938 21.9329 42.0259 22.4434C41.9778 21.1011 42.0328 19.7533 41.9943 18.4082Z" fill="#F9DC1C"/>
<path d="M57.547 20.525C58.908 18.8364 61.0135 17.8666 63.1532 17.7218C65.1419 17.6404 67.1677 17.6693 69.1028 18.1991C69.0753 19.5883 69.1028 20.9788 69.0877 22.368C67.5124 21.9252 65.8698 21.612 64.2286 21.7969C63.2315 21.9321 62.2399 22.448 61.7331 23.3489C61.3788 23.9531 61.2991 24.6622 61.2469 25.3478C62.4308 24.418 64.0061 24.1987 65.4674 24.2883C67.3174 24.4083 69.0726 25.5354 69.9241 27.1936C70.5613 28.4297 70.6726 29.8809 70.4762 31.2439C70.2674 32.6883 69.4956 34.054 68.3241 34.9273C66.6004 36.2778 64.2945 36.6751 62.1644 36.3978C60.3048 36.1702 58.5633 35.1783 57.4097 33.6995C56.0582 32.0592 55.4539 29.9085 55.4141 27.802C55.3592 25.2471 55.866 22.528 57.547 20.525Z" fill="#F9DC1C"/>
<path d="M71.829 18.0049C75.6484 18.0036 79.4678 18.0036 83.2859 18.0049C83.2818 19.401 83.2859 20.7971 83.2831 22.1932C81.2395 22.2097 79.1931 22.1642 77.1509 22.2166C77.1701 23.1409 77.1743 24.0694 77.1495 24.995C78.3087 24.9729 79.5104 24.7977 80.6283 25.2006C82.227 25.7386 83.4685 27.1747 83.8407 28.8205C84.1951 30.4055 84.1017 32.1658 83.2776 33.5936C82.503 34.9318 81.0761 35.7498 79.6175 36.1292C76.9847 36.7886 74.2214 36.4313 71.6408 35.7167C71.6024 34.3303 71.634 32.9439 71.623 31.5574C73.2793 31.9768 75.0647 32.3865 76.7416 31.8444C78.137 31.4098 78.3444 29.3129 77.2443 28.4604C76.5837 27.961 75.7281 27.8396 74.9233 27.8051C74.0223 27.7913 73.12 27.9113 72.2438 28.1196C72.057 28.1555 71.8949 28.2631 71.7466 28.3749C71.7892 28.2245 71.818 28.0714 71.8304 27.9169C71.8262 24.6129 71.8276 21.3075 71.829 18.0049Z" fill="#F9DC1C"/>
<path d="M17.462 24.2263C18.9494 22.7267 21.1606 22.2867 23.1973 22.2963C24.7383 22.2522 26.3671 22.6412 27.5249 23.7145C28.7252 24.8277 29.2815 26.4639 29.4998 28.0531C29.6482 29.0132 29.6303 29.9872 29.6276 30.9556C26.9206 30.9556 24.215 30.9556 21.5067 30.9556C21.5506 31.4343 21.6481 31.942 22.0121 32.2855C22.6576 32.8994 23.5984 32.9821 24.443 33.0387C25.9221 33.0635 27.4562 32.9035 28.7761 32.1806C28.7651 33.3505 28.7761 34.5217 28.7664 35.6929C27.1129 36.2765 25.3508 36.4448 23.6093 36.4765C21.6344 36.5124 19.5125 36.162 17.9688 34.8321C16.5308 33.6112 15.8936 31.695 15.8098 29.8534C15.6821 27.8765 16.0241 25.6913 17.462 24.2263Z" fill="#027B5B"/>
<path d="M22.0304 25.9415C22.4974 25.2627 23.6497 25.22 24.1139 25.9249C24.5314 26.5636 24.5575 27.3637 24.5712 28.1018C23.5535 28.1032 22.5372 28.1032 21.5195 28.1032C21.547 27.3637 21.5882 26.5678 22.0304 25.9415Z" fill="#4A5247"/>
<path d="M6.82888 26.3668C7.37687 26.1888 8.02648 26.462 8.27507 26.9889C8.63353 27.7008 8.62117 28.5271 8.63215 29.3066C8.60469 30.0874 8.56623 30.9316 8.12262 31.6048C7.69275 32.2712 6.56382 32.2725 6.14905 31.5883C5.75489 30.9523 5.71506 30.1688 5.71094 29.4404C5.71094 28.7368 5.70956 28.0167 5.91695 27.338C6.05017 26.8979 6.36467 26.4771 6.82888 26.3668Z" fill="#4A5247"/>
<path d="M62.4913 27.8239C63.3167 27.5204 64.3688 27.7729 64.8288 28.5606C65.3906 29.5235 65.3521 30.8216 64.756 31.7583C64.1682 32.7461 62.5806 32.8619 61.8527 31.979C61.225 31.2603 61.166 30.216 61.3596 29.3179C61.4778 28.6861 61.8623 28.0501 62.4913 27.8239Z" fill="#4A5247"/>
</g>
<defs>
<clipPath id="clip0_2387_14472">
<rect width="18" height="18" fill="white" transform="translate(85.5156) rotate(15)"/>
</clipPath>
<clipPath id="clip1_2387_14472">
<rect width="84" height="20" fill="white" transform="translate(0 16.6953)"/>
</clipPath>
</defs>
</svg>
