<svg width="86" height="20" viewBox="0 0 86 20" fill="none" xmlns="http://www.w3.org/2000/svg">
<g clip-path="url(#clip0_2389_14502)">
<path d="M7.13155 0.710938H12.7649C14.633 0.710938 15.5669 0.710935 16.5725 1.02805C17.6704 1.4269 18.5352 2.28978 18.9344 3.38478C19.2523 4.38844 19.2523 5.32036 19.2523 7.18382V12.8042C19.2523 14.6682 19.2523 15.6 18.9344 16.6032C18.5348 17.6988 17.67 18.5615 16.5725 18.96C15.5669 19.2771 14.633 19.2771 12.7649 19.2771H7.13155C5.26346 19.2771 4.33 19.2771 3.32441 18.96C2.22647 18.5611 1.36165 17.6986 0.9625 16.6032C0.644531 15.6 0.644531 14.6682 0.644531 12.8042V7.18421C0.644531 5.32017 0.644531 4.38844 0.9625 3.38517C1.36203 2.28959 2.22628 1.42728 3.32441 1.02844C4.33 0.711322 5.26346 0.711322 7.13155 0.711322" fill="#0A3231"/>
<path d="M12.8589 19.9242H7.0385C5.0767 19.9242 4.09213 19.9242 3.00364 19.5809L2.98975 19.5761C1.75914 19.1294 0.796368 18.1682 0.348435 16.9405L0.343614 16.9272C-6.89596e-08 15.8413 0 14.8586 0 12.9007V7.09377C0 5.13627 -2.29865e-08 4.15358 0.344193 3.06724L0.349013 3.05397C0.796561 1.82627 1.75934 0.865504 2.99033 0.418389L3.00422 0.413582C4.09233 0.0703132 5.07709 0.0703125 7.0385 0.0703125H12.8589C14.8207 0.0703125 15.8057 0.0703132 16.8942 0.413582L16.9081 0.418389C18.1391 0.865504 19.1014 1.82627 19.5494 3.05397L19.5542 3.06781C19.8984 4.15416 19.8984 5.13685 19.8984 7.09435V12.9013C19.8984 14.8592 19.8984 15.8419 19.5542 16.9278L19.5494 16.9411C19.1014 18.1692 18.1391 19.1299 16.9081 19.5767L16.8942 19.5815C15.8061 19.9247 14.8213 19.9247 12.8589 19.9247V19.9242ZM3.21324 18.9438C4.20031 19.2536 5.15017 19.2536 7.0385 19.2536H12.8589C14.7475 19.2536 15.6977 19.2536 16.6846 18.9438C17.7226 18.5642 18.5351 17.754 18.9152 16.718C19.2258 15.7332 19.2258 14.7851 19.2258 12.9009V7.09397C19.2258 5.20973 19.2258 4.26147 18.9152 3.27628C18.5355 2.2407 17.7229 1.43031 16.6846 1.05089C15.6975 0.741082 14.7477 0.741083 12.8589 0.741083H7.0385C5.14997 0.741083 4.20012 0.741082 3.21324 1.05089C2.17487 1.4305 1.3627 2.2407 0.982637 3.27628C0.671996 4.26147 0.671996 5.20916 0.671996 7.09339V12.9003C0.671996 14.7845 0.671996 15.7328 0.982637 16.7174C1.3627 17.7534 2.17487 18.5638 3.21324 18.9432V18.9438Z" fill="#BB9D5E"/>
<path d="M9.55569 12.8037C9.36268 12.728 9.23213 12.5999 9.23213 12.4574C9.23213 12.3149 9.35921 12.1895 9.54779 12.1135C9.59927 12.0928 9.65577 12.0778 9.71497 12.0653C9.72885 12.0622 9.74254 12.0597 9.75681 12.0576C9.81774 12.0472 9.88041 12.0403 9.94597 12.0403C10.0115 12.0403 10.0742 12.0476 10.1351 12.058C10.1494 12.0605 10.1633 12.0628 10.177 12.0657C10.4543 12.1233 10.6604 12.2789 10.6604 12.4576C10.6604 12.6362 10.4527 12.7931 10.1731 12.8505C10.1592 12.8535 10.1459 12.8557 10.132 12.8582C10.0721 12.8682 10.0108 12.8749 9.94597 12.8749C9.88157 12.8749 9.81986 12.868 9.76028 12.8582C9.7464 12.856 9.73271 12.8533 9.71921 12.8505C9.66136 12.8389 9.60602 12.8241 9.55589 12.8043L9.55569 12.8037ZM9.26973 10.7341C9.39931 11.037 9.49052 11.4053 9.52986 11.8145C9.65635 11.7749 9.79673 11.7512 9.94674 11.7512C10.0968 11.7512 10.2369 11.7745 10.3636 11.8145C10.403 11.4049 10.4942 11.037 10.6238 10.7341C10.4035 10.798 10.1776 10.8314 9.94694 10.8314C9.71593 10.8314 9.48956 10.798 9.26973 10.7341ZM9.94655 10.5433C11.0472 10.5433 12.0375 9.69949 12.7167 8.3618H12.7331C12.7603 8.30719 12.7874 8.25199 12.8139 8.19603H7.07924C7.10566 8.25238 7.13285 8.30719 7.16003 8.3618H7.17643C7.85594 9.69949 8.84591 10.5433 9.94655 10.5433ZM13.6189 4.95257C13.6366 4.7195 13.6478 4.48257 13.6509 4.24219H6.24219C6.24527 4.48257 6.25646 4.71911 6.2742 4.95257H13.6189ZM11.5659 6.14276C11.311 6.14276 11.1041 6.34949 11.1041 6.60373C11.1041 6.85796 11.311 7.06469 11.5659 7.06469C11.8208 7.06469 12.0277 6.85796 12.0277 6.60373C12.0277 6.34949 11.8202 6.14276 11.5659 6.14276ZM7.16948 6.60373C7.16948 6.34949 6.96258 6.14276 6.70767 6.14276C6.67913 6.14276 6.65117 6.14622 6.62379 6.15142C6.61511 6.15315 6.60701 6.15526 6.59834 6.15738C6.57982 6.16219 6.5617 6.16777 6.54396 6.17411C6.53528 6.17757 6.52661 6.18065 6.51812 6.1845C6.49826 6.19353 6.47975 6.20392 6.46162 6.21507C6.4568 6.21815 6.45217 6.22026 6.44774 6.22334C6.32587 6.30642 6.24604 6.44603 6.24604 6.60373C6.24604 6.8393 6.42441 7.03199 6.65329 7.05911C6.67142 7.06122 6.68916 7.06469 6.70767 7.06469C6.96258 7.06469 7.16948 6.85796 7.16948 6.60373ZM10.3474 13.1056C10.2252 13.1422 10.09 13.163 9.94655 13.163C9.80309 13.163 9.6683 13.1422 9.54605 13.106C9.47047 13.8126 8.89373 14.4556 7.79578 15.0535H12.0975C11.0009 14.4566 10.4248 13.8139 10.3474 13.1056ZM12.7655 15.3418H7.12764C7.01368 15.3418 6.92112 15.4339 6.92112 15.5478C6.92112 15.6614 7.01349 15.7537 7.12764 15.7537H12.7649C12.822 15.7537 12.8733 15.7305 12.9109 15.6933C12.9485 15.6558 12.9714 15.6047 12.9714 15.5478C12.9714 15.4908 12.9481 15.4397 12.9109 15.4022C12.8736 15.3647 12.822 15.3418 12.7649 15.3418H12.7655ZM9.94655 6.14334C9.69164 6.14334 9.48473 6.35007 9.48473 6.6043C9.48473 6.85853 9.69164 7.06526 9.94655 7.06526C10.2015 7.06526 10.4084 6.85853 10.4084 6.6043C10.4084 6.35007 10.2009 6.14334 9.94655 6.14334ZM13.4311 6.21526C13.4134 6.20411 13.3948 6.19373 13.3754 6.18507C13.3667 6.18123 13.358 6.17815 13.3489 6.17469C13.3312 6.16776 13.3131 6.16219 13.2946 6.15796C13.2859 6.15584 13.2778 6.15373 13.2691 6.152C13.2419 6.1468 13.2144 6.14334 13.1852 6.14334C12.9303 6.14334 12.7234 6.35007 12.7234 6.6043C12.7234 6.85853 12.9307 7.06526 13.1852 7.06526C13.4402 7.06526 13.6471 6.85853 13.6471 6.6043C13.6471 6.44065 13.5603 6.29719 13.4307 6.21565L13.4311 6.21526ZM13.1494 7.3495C13.085 7.542 13.0163 7.72911 12.9417 7.90815H6.95178C6.87697 7.72892 6.80794 7.542 6.74411 7.3495C7.14114 7.33007 7.45853 7.00488 7.45853 6.6043C7.45853 6.20373 7.12166 5.85507 6.70786 5.85507C6.59467 5.85507 6.48881 5.8818 6.39259 5.92661C6.35499 5.70296 6.32356 5.4743 6.29965 5.24123H13.5938C13.5701 5.4743 13.5385 5.70257 13.5009 5.92661C13.4045 5.8818 13.2988 5.85507 13.1856 5.85507C12.7718 5.85507 12.435 6.19103 12.435 6.6043C12.435 7.00488 12.7523 7.33046 13.1494 7.3495ZM9.07826 6.6043C9.07826 6.19123 8.74139 5.85526 8.32759 5.85526C7.91379 5.85526 7.57692 6.19123 7.57692 6.6043C7.57692 7.01738 7.91379 7.35353 8.32759 7.35353C8.74139 7.35334 9.07826 7.01738 9.07826 6.6043ZM10.6976 6.6043C10.6976 6.19123 10.3607 5.85526 9.94694 5.85526C9.53313 5.85526 9.19627 6.19123 9.19627 6.6043C9.19627 7.01738 9.53313 7.35353 9.94694 7.35353C10.3607 7.35353 10.6976 7.01738 10.6976 6.6043ZM12.317 6.6043C12.317 6.19123 11.9801 5.85526 11.5663 5.85526C11.1525 5.85526 10.8156 6.19123 10.8156 6.6043C10.8156 7.01738 11.1525 7.35353 11.5663 7.35353C11.9801 7.35334 12.317 7.01738 12.317 6.6043ZM8.32759 6.14334C8.07268 6.14334 7.86578 6.35007 7.86578 6.6043C7.86578 6.85853 8.07306 7.06526 8.32759 7.06526C8.58251 7.06526 8.78941 6.85853 8.78941 6.6043C8.78941 6.35007 8.58193 6.14334 8.32759 6.14334Z" fill="url(#paint0_linear_2389_14502)"/>
<path d="M25.881 16.1235L23.0534 13.3298C22.6473 12.9387 22.4375 12.4635 22.4375 11.8635V10.8296C22.4375 9.96367 23.0258 9.36328 23.907 9.36328H26.2028C27.0848 9.36328 27.6866 9.96386 27.6866 10.8296V12.3525H25.9373V11.0537C25.9373 11.0114 25.9097 10.9977 25.8812 10.9977H24.2433C24.2015 10.9977 24.1876 11.0116 24.1876 11.0537V12.0173C24.1876 12.0733 24.2015 12.101 24.2433 12.1431L27.0709 14.9364C27.4631 15.3275 27.6868 15.8027 27.6868 16.4031V17.7162C27.6868 18.5962 27.0852 19.1964 26.203 19.1964H23.9072C23.0256 19.1964 22.4377 18.5964 22.4377 17.7162V16.1939H24.1876V17.5069C24.1876 17.5344 24.2015 17.5629 24.2433 17.5629H25.8812C25.9093 17.5629 25.9373 17.5348 25.9373 17.5069V16.2498C25.9373 16.1939 25.9097 16.1658 25.8812 16.124V16.1235H25.881Z" fill="#BB9D5E"/>
<path d="M32.7032 15.3545H30.6878V19.1674H28.9375V9.39062H32.7032C33.5852 9.39062 34.187 9.99062 34.187 10.857V13.8879C34.1868 14.7545 33.5989 15.3549 32.7032 15.3545ZM32.3808 10.9968H30.6872V13.7481H32.3808C32.4089 13.7481 32.4369 13.7343 32.4369 13.6922V11.0524C32.4369 11.01 32.4093 10.9964 32.3808 10.9964V10.9968Z" fill="#BB9D5E"/>
<path d="M39.0309 19.1964H36.7351C35.8674 19.1964 35.2656 18.5964 35.2656 17.7162V10.8296C35.2656 9.96367 35.8678 9.36328 36.7351 9.36328H39.0309C39.9129 9.36328 40.5147 9.96386 40.5147 10.8296V17.7158C40.5147 18.5958 39.9129 19.196 39.0309 19.1964ZM38.7087 10.9977H37.0709C37.029 10.9977 37.0151 11.0116 37.0151 11.0537V17.5064C37.0151 17.5339 37.029 17.5623 37.0709 17.5623H38.7087C38.7369 17.5623 38.7648 17.5342 38.7648 17.5064V11.0537C38.7648 11.0114 38.7372 10.9977 38.7087 10.9977Z" fill="#BB9D5E"/>
<path d="M45.3131 19.1674L44.3193 15.3545H43.5077V19.1674H41.7578V9.39062H45.5235C46.4055 9.39062 47.0073 9.99062 47.0073 10.857V13.8879C47.0073 14.6004 46.6155 15.1312 45.9714 15.2987L47.1471 19.1676H45.3135L45.3131 19.1674ZM43.5077 13.7481H45.2013C45.2294 13.7481 45.2574 13.7343 45.2574 13.6922V11.0527C45.2574 11.0104 45.2298 10.9968 45.2013 10.9968H43.5077V13.7481Z" fill="#BB9D5E"/>
<path d="M51.4054 10.9966V19.1674H49.6556V10.9966H47.9062V9.39062H53.1551V10.9966H51.4054Z" fill="#BB9D5E"/>
<path d="M57.4982 16.1235L54.6706 13.3298C54.2645 12.9387 54.0547 12.4635 54.0547 11.8635V10.8296C54.0547 9.96367 54.643 9.36328 55.5242 9.36328H57.82C58.702 9.36328 59.3038 9.96386 59.3038 10.8296V12.3525H57.5545V11.0537C57.5545 11.0114 57.5269 10.9977 57.4984 10.9977H55.8605C55.8187 10.9977 55.8048 11.0116 55.8048 11.0537V12.0173C55.8048 12.0733 55.8187 12.101 55.8605 12.1431L58.6881 14.9364C59.0803 15.3275 59.304 15.8027 59.304 16.4031V17.7162C59.304 18.5962 58.7024 19.1964 57.8202 19.1964H55.5244C54.6428 19.1964 54.0549 18.5964 54.0549 17.7162V16.1939H55.8048V17.5069C55.8048 17.5344 55.8187 17.5629 55.8605 17.5629H57.4984C57.5265 17.5629 57.5545 17.5348 57.5545 17.5069V16.2498C57.5545 16.1939 57.5269 16.1658 57.4984 16.124V16.1235H57.4982Z" fill="#BB9D5E"/>
<path d="M64.3282 19.1674H60.5625V9.39062H64.3282C65.2102 9.39062 65.8124 9.99062 65.8124 10.857V12.9381C65.8124 13.5387 65.5601 13.916 65.1122 14.0699V14.0974C65.5605 14.237 65.8124 14.6281 65.8124 15.2291V17.6872C65.8124 18.5674 65.2104 19.1677 64.3282 19.1674ZM64.0623 13.2591V11.0522C64.0623 11.0099 64.0347 10.9962 64.0062 10.9962H62.3126V13.3147H64.0062C64.0341 13.3147 64.0623 13.301 64.0623 13.2591ZM64.0623 17.5054V14.9074C64.0623 14.8799 64.0347 14.8514 64.0062 14.8514H62.3126V17.5614H64.0062C64.0341 17.5614 64.0623 17.5335 64.0623 17.5054Z" fill="#BB9D5E"/>
<path d="M70.8239 19.1964H68.5281C67.6604 19.1964 67.0586 18.5964 67.0586 17.7162V10.8296C67.0586 9.96367 67.6608 9.36328 68.5281 9.36328H70.8239C71.7059 9.36328 72.3077 9.96386 72.3077 10.8296V17.7158C72.3077 18.5958 71.7059 19.196 70.8239 19.1964ZM70.5017 10.9977H68.8638C68.822 10.9977 68.8081 11.0116 68.8081 11.0537V17.5064C68.8081 17.5339 68.822 17.5623 68.8638 17.5623H70.5017C70.5298 17.5623 70.5578 17.5342 70.5578 17.5064V11.0537C70.5578 11.0114 70.5302 10.9977 70.5017 10.9977Z" fill="#BB9D5E"/>
<path d="M77.32 19.1964H75.0242C74.1565 19.1964 73.5547 18.5964 73.5547 17.7162V10.8296C73.5547 9.96367 74.1569 9.36328 75.0242 9.36328H77.32C78.202 9.36328 78.8038 9.96386 78.8038 10.8296V17.7158C78.8038 18.5958 78.202 19.196 77.32 19.1964ZM76.9978 10.9977H75.3599C75.3181 10.9977 75.3042 11.0116 75.3042 11.0537V17.5064C75.3042 17.5339 75.3181 17.5623 75.3599 17.5623H76.9978C77.0259 17.5623 77.0539 17.5342 77.0539 17.5064V11.0537C77.0539 11.0114 77.0263 10.9977 76.9978 10.9977Z" fill="#BB9D5E"/>
<path d="M84.0403 19.1674L82.5565 15.522L81.8007 17.0306V19.1677H80.0508V9.39062H81.8007V13.9018L83.9979 9.39062H85.8319L83.6904 13.6783L86 19.1674H84.0403Z" fill="#BB9D5E"/>
<path d="M25.5408 1.7721C25.1758 1.7721 24.8424 1.86172 24.5404 2.04095C24.2385 2.22018 24.0027 2.46479 23.8326 2.77422C23.6623 3.08345 23.5773 3.42172 23.5773 3.78864C23.5773 4.36076 23.7709 4.84056 24.1579 5.22826C24.5449 5.61556 25.0221 5.80941 25.5902 5.80941C25.9496 5.80941 26.2709 5.73402 26.5534 5.58364C26.8358 5.43287 27.0721 5.23595 27.2612 4.9921L28.0435 5.69037C27.7718 6.03537 27.422 6.30903 26.994 6.51191C26.5659 6.71441 26.09 6.81595 25.5655 6.81595C25.1155 6.81595 24.6947 6.7371 24.3039 6.5798C23.913 6.42249 23.5817 6.20807 23.31 5.9371C23.0383 5.66614 22.8249 5.34518 22.6699 4.97383C22.5148 4.60287 22.4375 4.20787 22.4375 3.78883C22.4375 3.3698 22.5144 2.97499 22.6681 2.60383C22.8218 2.23249 23.0339 1.91191 23.3039 1.64056C23.5742 1.3696 23.9034 1.15499 24.2917 0.997872C24.6801 0.840564 25.0991 0.761719 25.5491 0.761719C25.9992 0.761719 26.375 0.835756 26.7431 0.98364C27.1106 1.13133 27.4321 1.33826 27.7063 1.60402L26.9737 2.37595C26.5703 1.97364 26.0929 1.77249 25.5414 1.77249L25.5408 1.7721Z" fill="white"/>
<path d="M29.5724 6.73336H28.3828L30.9102 0.84375H31.7127L34.2401 6.73336H33.0548L32.495 5.43144H30.1285L29.5729 6.73336H29.5724ZM31.3091 2.67971L30.5558 4.42086H32.0581L31.3091 2.67971Z" fill="white"/>
<path d="M38.4538 1.85394H36.05V3.07394H37.8654V4.08413H36.05V5.72279H38.5363V6.73298H34.9141V0.84375H38.4538V1.85394Z" fill="white"/>
<path d="M39.0859 5.9362L39.831 5.16428C40.0069 5.35851 40.2172 5.51543 40.4629 5.63466C40.7088 5.75351 40.9617 5.81351 41.2222 5.81351C41.4828 5.81351 41.6814 5.74293 41.8416 5.60197C42.0022 5.46101 42.0822 5.2837 42.0822 5.07005C42.0822 4.92793 42.0439 4.80159 41.9669 4.69216C41.89 4.58274 41.7812 4.48966 41.6395 4.41293C41.4978 4.3362 41.3536 4.2687 41.2055 4.20966C41.0574 4.15062 40.885 4.08043 40.6889 3.99812C40.4928 3.91582 40.3273 3.83658 40.1929 3.75985C39.6357 3.43428 39.3576 2.98793 39.3576 2.42101C39.3576 2.16639 39.4134 1.93293 39.5244 1.72063C39.6355 1.50832 39.7822 1.3337 39.965 1.19678C40.1478 1.05985 40.3547 0.953892 40.5865 0.878508C40.8185 0.803123 41.0578 0.765625 41.3048 0.765625C41.9471 0.765625 42.5176 0.950432 43.0171 1.32005L42.4245 2.16178C42.3036 2.04928 42.1507 1.95716 41.9654 1.88428C41.7801 1.81197 41.5944 1.77524 41.4077 1.77524C41.2955 1.77524 41.187 1.78774 41.0824 1.81235C40.9779 1.83697 40.8815 1.87312 40.7922 1.92139C40.703 1.96966 40.631 2.03562 40.5763 2.12043C40.5215 2.20524 40.4938 2.30274 40.4938 2.41216C40.4938 2.52159 40.5331 2.6262 40.6112 2.71793C40.6893 2.80966 40.7922 2.88543 40.9201 2.94582C41.0475 3.0062 41.1931 3.0712 41.3563 3.14101C41.5194 3.21082 41.6862 3.27851 41.8564 3.34428C42.0267 3.41024 42.1933 3.49428 42.3566 3.59678C42.52 3.69928 42.6655 3.81255 42.7928 3.93582C42.9203 4.05909 43.0234 4.2162 43.1017 4.40793C43.18 4.59966 43.2191 4.81466 43.2191 5.05274C43.2191 5.38966 43.1268 5.69466 42.9415 5.96851C42.7562 6.24255 42.5121 6.45236 42.2089 6.5987C41.9058 6.74505 41.577 6.81832 41.2232 6.81832C40.4409 6.81832 39.7292 6.52408 39.0869 5.93524L39.0859 5.9362Z" fill="white"/>
<path d="M44.7403 6.73336H43.5508L46.0781 0.84375H46.8807L49.408 6.73336H48.2224L47.6626 5.43144H45.296L44.7403 6.73336ZM46.4771 2.67971L45.7237 4.42086H47.226L46.4771 2.67971Z" fill="white"/>
<path d="M51.6374 4.12548H51.2219V6.73336H50.0859V0.84375H52.2344C52.7722 0.84375 53.2016 0.990286 53.5229 1.28317C53.6873 1.43913 53.8158 1.62048 53.9077 1.82721C53.9997 2.03394 54.0456 2.25375 54.0456 2.48625C54.0456 2.71894 53.9999 2.93856 53.9077 3.14529C53.8158 3.35202 53.6875 3.53336 53.5229 3.68933C53.3553 3.84836 53.1592 3.96336 52.9342 4.03432L55.1443 6.73279H53.7367L51.6374 4.1249V4.12548ZM51.2219 3.11529H52.1686C52.4403 3.11529 52.6308 3.05625 52.7409 2.93875C52.8532 2.81817 52.9099 2.67029 52.9099 2.49509C52.9099 2.3199 52.8537 2.15952 52.7409 2.03933C52.6256 1.91606 52.4351 1.85452 52.1686 1.85452H51.2219V3.11529Z" fill="white"/>
<path d="M55.2656 5.9362L56.0107 5.16428C56.1866 5.35851 56.3969 5.51543 56.6426 5.63466C56.8884 5.75351 57.1414 5.81351 57.4019 5.81351C57.6624 5.81351 57.8611 5.74293 58.0213 5.60197C58.1819 5.46101 58.2619 5.2837 58.2619 5.07005C58.2619 4.92793 58.2236 4.80159 58.1466 4.69216C58.0697 4.58274 57.9609 4.48966 57.8192 4.41293C57.6775 4.3362 57.5332 4.2687 57.3852 4.20966C57.2371 4.15062 57.0647 4.08043 56.8686 3.99812C56.6725 3.91582 56.507 3.83658 56.3726 3.75985C55.8154 3.43428 55.5373 2.98793 55.5373 2.42101C55.5373 2.16639 55.593 1.93293 55.7041 1.72063C55.8152 1.50832 55.9619 1.3337 56.1447 1.19678C56.3269 1.05985 56.5344 0.953892 56.7662 0.878508C56.9982 0.803123 57.2375 0.765625 57.4845 0.765625C58.1268 0.765625 58.6973 0.950432 59.1967 1.32005L58.6042 2.16178C58.4833 2.04928 58.3304 1.95716 58.1451 1.88428C57.9598 1.81197 57.7741 1.77524 57.5874 1.77524C57.4752 1.77524 57.3666 1.78774 57.2621 1.81235C57.158 1.83697 57.0612 1.87312 56.9719 1.92139C56.8827 1.96966 56.8107 2.03562 56.756 2.12043C56.7012 2.20524 56.6734 2.30274 56.6734 2.41216C56.6734 2.52159 56.7128 2.6262 56.7909 2.71793C56.869 2.80966 56.9719 2.88543 57.0998 2.94582C57.2272 3.0062 57.3728 3.0712 57.5359 3.14101C57.6993 3.21082 57.8659 3.27851 58.0361 3.34428C58.2064 3.41024 58.373 3.49428 58.5363 3.59678C58.6996 3.69928 58.8452 3.81255 58.9725 3.93582C59.1 4.05909 59.2031 4.2162 59.2814 4.40793C59.3595 4.59966 59.3988 4.81466 59.3988 5.05274C59.3988 5.38966 59.3065 5.69466 59.1212 5.96851C58.9359 6.24255 58.6917 6.45236 58.3886 6.5987C58.0855 6.74505 57.7567 6.81832 57.4029 6.81832C56.6206 6.81832 55.9089 6.52408 55.2666 5.93524L55.2656 5.9362Z" fill="white"/>
</g>
<defs>
<linearGradient id="paint0_linear_2389_14502" x1="6.24215" y1="9.99794" x2="13.6509" y2="9.99794" gradientUnits="userSpaceOnUse">
<stop offset="0.19" stop-color="#BB9D5E"/>
<stop offset="0.5" stop-color="#E1D4BA"/>
<stop offset="0.82" stop-color="#BB9D5E"/>
</linearGradient>
<clipPath id="clip0_2389_14502">
<rect width="86" height="20" fill="white"/>
</clipPath>
</defs>
</svg>
