<svg width="70" height="20" viewBox="0 0 70 20" fill="none" xmlns="http://www.w3.org/2000/svg">
<g clip-path="url(#clip0_2389_14485)">
<path d="M4.32314 7.68002C5.65766 7.06091 7.06455 6.68439 8.4453 6.51942C8.59489 6.49872 8.65662 6.60191 8.64111 6.72061C8.46598 7.7832 8.34739 8.86131 8.30117 9.94947C8.29084 10.0734 8.22394 10.1558 8.08469 10.1817C7.31693 10.3315 6.56985 10.5686 5.74523 10.9451C6.48715 12.2348 7.38382 13.4157 8.37323 14.4062C8.48666 14.5249 8.55354 14.6488 8.58455 14.8497C8.84209 16.5055 9.29058 18.1768 9.88837 19.7602C9.92425 19.8479 9.92425 19.91 9.87287 19.9614C9.81631 20.0129 9.72844 20.0129 9.64603 19.9614C3.6688 16.3198 0.0617245 9.78449 0 2.92928C0 2.7643 0.0568594 2.64042 0.195815 2.56311C3.36991 0.783708 6.9408 -0.0725094 10.5272 0.00480282C10.6868 0.00997725 10.7437 0.149383 10.6816 0.278135C10.1869 1.3045 9.77465 2.35157 9.45022 3.39893C9.41403 3.52282 9.33681 3.58461 9.20302 3.58978C7.28622 3.68779 5.4208 4.12123 3.71015 4.83285C3.83391 5.80778 4.04492 6.76201 4.32314 7.68002ZM10.9444 3.59982C10.8258 3.58948 10.7434 3.48112 10.7795 3.36271C11.1557 2.26908 11.5884 1.23754 12.0783 0.278135C12.1348 0.164602 12.2327 0.118336 12.3668 0.133555C15.0668 0.437933 17.6225 1.28898 19.9002 2.56311C20.0394 2.64042 20.1012 2.7643 20.096 2.92928C20.0498 9.41832 16.8033 15.6286 11.3363 19.3837C11.2333 19.4558 11.0992 19.4148 11.0529 19.296C10.6562 18.2283 10.3314 17.145 10.0997 16.0979C10.0687 15.9588 10.0997 15.8505 10.2079 15.7677C13.5162 13.1576 15.8349 9.2634 16.3914 4.83255C14.7062 4.13613 12.8818 3.70301 10.9444 3.59982ZM24.9409 2.91619C24.9409 2.84709 24.9869 2.80113 25.0559 2.80113H30.2738C30.3383 2.80113 30.3888 2.87023 30.3656 2.92989L29.8968 4.22318C29.8692 4.29684 29.8187 4.32911 29.7405 4.32911H26.55V5.72803H29.2118C29.2762 5.72803 29.3267 5.79713 29.3036 5.85679L28.8438 7.12696C28.8162 7.20518 28.7657 7.23745 28.6876 7.23745H26.5497V9.58908C26.5497 9.65818 26.5038 9.70414 26.4348 9.70414H25.0556C24.9866 9.70414 24.9406 9.65818 24.9406 9.58908L24.9409 2.91619ZM31.9471 2.90706C31.9748 2.8334 32.0252 2.80113 32.1034 2.80113H33.9515C34.0296 2.80113 34.0801 2.8334 34.1077 2.90706L36.5259 9.57569C36.5491 9.63565 36.4983 9.70444 36.4338 9.70444H34.9719C34.8937 9.70444 34.8479 9.66761 34.8202 9.59395L34.3559 8.25012H31.6802L31.2159 9.59395C31.1927 9.66761 31.1422 9.70444 31.0641 9.70444H29.6204C29.556 9.70444 29.5054 9.63535 29.5286 9.57569L31.9471 2.90706ZM33.8411 6.74527L33.0183 4.36137L32.1952 6.74527H33.8411ZM37.201 2.91619C37.201 2.84709 37.2469 2.80113 37.3159 2.80113H38.9204C39.0031 2.80113 39.054 2.82883 39.0953 2.90249L41.4952 6.98938V2.91619C41.4952 2.84709 41.5412 2.80113 41.6102 2.80113H42.9617C43.0307 2.80113 43.0767 2.84709 43.0767 2.91619V9.58939C43.0767 9.65848 43.0307 9.70444 42.9617 9.70444H41.3757C41.293 9.70444 41.2426 9.67674 41.2009 9.60308L38.7827 5.48423V9.58939C38.7827 9.65848 38.7368 9.70444 38.6678 9.70444H37.3162C37.2472 9.70444 37.2013 9.65848 37.2013 9.58939L37.201 2.91619ZM47.002 8.17646C48.0961 8.17646 48.9237 7.34794 48.9237 6.25278C48.9237 5.15763 48.0961 4.32911 47.002 4.32911H44.5516C44.4826 4.32911 44.4367 4.28315 44.4367 4.21405V2.91619C44.4367 2.84709 44.4826 2.80113 44.5516 2.80113H47.002C49.0204 2.80113 50.5329 4.28315 50.5329 6.25278C50.5329 8.22242 49.0201 9.70444 47.002 9.70444H44.5516C44.4826 9.70444 44.4367 9.65848 44.4367 9.58939V6.36327C44.4367 5.93075 44.5748 5.59472 44.8183 5.35091C45.0391 5.12993 45.3838 4.98261 45.6919 4.98261H45.9309C45.9999 4.98261 46.0458 5.02857 46.0458 5.09766V8.17646H47.002ZM51.5256 6.97994V2.91619C51.5256 2.84709 51.5715 2.80113 51.6405 2.80113H53.0198C53.0888 2.80113 53.1346 2.84709 53.1346 2.91619V6.97994C53.1346 7.7622 53.6817 8.30552 54.4589 8.30552C55.236 8.30552 55.7831 7.7625 55.7831 6.97994V2.91619C55.7831 2.84709 55.829 2.80113 55.8979 2.80113H57.2772C57.3462 2.80113 57.3922 2.84709 57.3922 2.91619V6.97994C57.3922 8.67351 56.1969 9.83319 54.4592 9.83319C52.7215 9.83319 51.5256 8.67351 51.5256 6.97994ZM63.4138 5.47022C63.4828 5.47022 63.5287 5.51619 63.5287 5.58528V6.86458C63.5287 6.93368 63.4828 6.97964 63.4138 6.97964H60.3656V8.17615H63.5974C63.6664 8.17615 63.7124 8.22212 63.7124 8.29121V9.58908C63.7124 9.65818 63.6664 9.70414 63.5974 9.70414H58.8714C58.8024 9.70414 58.7565 9.65818 58.7565 9.58908V2.91619C58.7565 2.84709 58.8024 2.80113 58.8714 2.80113H63.5974C63.6664 2.80113 63.7124 2.84709 63.7124 2.91619V4.21405C63.7124 4.28315 63.6664 4.32911 63.5974 4.32911H60.3656V5.47053L63.4138 5.47022ZM66.6682 8.17646H69.845C69.914 8.17646 69.9599 8.22242 69.9599 8.29151V9.58939C69.9599 9.65848 69.914 9.70444 69.845 9.70444H65.174C65.1049 9.70444 65.0591 9.65848 65.0591 9.58939V2.91619C65.0591 2.84709 65.1049 2.80113 65.174 2.80113H66.5532C66.6222 2.80113 66.6682 2.84709 66.6682 2.91619V8.17646Z" fill="#0078FF"/>
<path d="M27.7482 14.7052C27.7482 15.4987 27.0434 15.8101 26.3958 15.8101C25.3802 15.8101 24.9344 15.2497 24.8359 14.6221H25.4267C25.5356 15.0422 25.8153 15.2601 26.3906 15.2601C26.8777 15.2601 27.1574 15.068 27.1574 14.7311C27.1574 14.3941 26.8622 14.3369 26.1884 14.1865C25.4836 14.031 24.9344 13.8338 24.9344 13.1544C24.9344 12.4333 25.5718 12.0547 26.2662 12.0547C27.1781 12.0547 27.598 12.5268 27.7017 13.1026H27.111C27.0073 12.8019 26.7585 12.6047 26.2714 12.6047C25.7843 12.6047 25.5201 12.8226 25.5201 13.1389C25.5201 13.3982 25.7274 13.4813 26.3286 13.611C27.2459 13.8134 27.7486 14.0051 27.7486 14.7055L27.7482 14.7052Z" fill="#0078FF"/>
<path d="M28.168 15.7484V12.1172H29.6552C30.4479 12.1172 30.9298 12.5944 30.9298 13.3103C30.9298 14.0262 30.4479 14.519 29.6552 14.519H28.7537V15.7484H28.168ZM29.6345 13.9586C30.1112 13.9586 30.3341 13.6838 30.3341 13.3155C30.3341 12.9472 30.1112 12.6775 29.6345 12.6775H28.7537V13.959H29.6345V13.9586Z" fill="#0078FF"/>
<path d="M34.9494 13.9324C34.9442 15.0011 34.1305 15.8101 33.0684 15.8101C32.0063 15.8101 31.1875 15.0008 31.1875 13.9324C31.1875 12.864 32.0063 12.0547 33.0684 12.0547C34.1305 12.0547 34.9442 12.864 34.9494 13.9324ZM31.7783 13.9324C31.7783 14.6897 32.3329 15.25 33.0687 15.25C33.8046 15.25 34.354 14.6897 34.354 13.9324C34.354 13.1751 33.7994 12.6147 33.0687 12.6147C32.3381 12.6147 31.7783 13.1751 31.7783 13.9324Z" fill="#0078FF"/>
<path d="M35.3753 12.1175H36.8727C37.6606 12.1175 38.106 12.5844 38.106 13.2689C38.106 13.8707 37.7692 14.2545 37.1939 14.3635L38.277 15.7484H37.5566L36.5255 14.3945H35.9606V15.7484H35.375V12.1172L35.3753 12.1175ZM36.8107 13.8759C37.2927 13.8759 37.5156 13.6269 37.5156 13.2741C37.5156 12.9213 37.2875 12.6775 36.8107 12.6775H35.9609V13.8759H36.8107Z" fill="#0078FF"/>
<path d="M41.017 12.6775H39.9082V15.7484H39.3225V12.6775H38.2188V12.1172H41.017V12.6775Z" fill="#0078FF"/>
<path d="M44.0216 14.7052C44.0216 15.4987 43.3169 15.8101 42.6691 15.8101C41.6536 15.8101 41.2079 15.2497 41.1094 14.6221H41.7002C41.8089 15.0422 42.0887 15.2601 42.6639 15.2601C43.1511 15.2601 43.4308 15.068 43.4308 14.7311C43.4308 14.3941 43.1356 14.3369 42.4618 14.1865C41.757 14.031 41.2079 13.8338 41.2079 13.1544C41.2079 12.4333 41.8452 12.0547 42.5397 12.0547C43.4515 12.0547 43.8714 12.5268 43.9751 13.1026H43.3843C43.2806 12.8019 43.0319 12.6047 42.5448 12.6047C42.0577 12.6047 41.7935 12.8226 41.7935 13.1389C41.7935 13.3982 42.0008 13.4813 42.602 13.611C43.5194 13.8134 44.0219 14.0051 44.0219 14.7055L44.0216 14.7052Z" fill="#0078FF"/>
<path d="M48.1714 14.9238L48.1193 13.6372V12.1172H48.7049V15.7484H48.0104L46.1967 12.942L46.2536 14.2283V15.7484H45.668V12.1172H46.3573L48.1711 14.9235L48.1714 14.9238Z" fill="#0078FF"/>
<path d="M51.536 12.6772H49.7533V13.6162H51.4061V14.1766H49.7533V15.1881H51.536V15.7484H49.168V12.1172H51.536V12.6775V12.6772Z" fill="#0078FF"/>
<path d="M54.5522 12.6775H53.4433V15.7484H52.8576V12.6775H51.7539V12.1172H54.5522V12.6775Z" fill="#0078FF"/>
<path d="M58.7381 15.7484H58.0075L57.6602 14.4359L57.3079 12.8175L57.2145 12.8124L56.8673 14.4359L56.52 15.7484H55.7842L54.8203 12.1172H55.4215L55.8827 13.8549L56.1573 15.1308L56.4318 13.8549L56.8879 12.1172H57.6341L58.0902 13.8549L58.3699 15.1412L58.6445 13.8549L59.1006 12.1172H59.7017L58.7378 15.7484H58.7381Z" fill="#0078FF"/>
<path d="M63.4808 13.9324C63.4757 15.0011 62.6621 15.8101 61.5997 15.8101C60.5373 15.8101 59.7188 15.0008 59.7188 13.9324C59.7188 12.864 60.5376 12.0547 61.5997 12.0547C62.6617 12.0547 63.4754 12.864 63.4808 13.9324ZM60.3095 13.9324C60.3095 14.6897 60.8641 15.25 61.6 15.25C62.3358 15.25 62.8852 14.6897 62.8852 13.9324C62.8852 13.1751 62.3306 12.6147 61.6 12.6147C60.8692 12.6147 60.3095 13.1751 60.3095 13.9324Z" fill="#0078FF"/>
<path d="M63.9102 12.1175H65.4077C66.1952 12.1175 66.641 12.5844 66.641 13.2689C66.641 13.8707 66.3041 14.2545 65.7291 14.3635L66.8121 15.7484H66.0919L65.0608 14.3945H64.4958V15.7484H63.9102V12.1172V12.1175ZM65.3454 13.8759C65.8273 13.8759 66.0502 13.6269 66.0502 13.2741C66.0502 12.9213 65.8222 12.6775 65.3454 12.6775H64.4955V13.8759H65.3454Z" fill="#0078FF"/>
<path d="M68.3581 13.8862L70.0008 15.7484H69.2599L67.7262 14.0159V15.7484H67.1406V12.1172H67.7262V13.7721L69.1927 12.1172H69.9285L68.3584 13.8862H68.3581Z" fill="#0078FF"/>
</g>
<defs>
<clipPath id="clip0_2389_14485">
<rect width="70" height="20" fill="white"/>
</clipPath>
</defs>
</svg>
