<svg width="30" height="30" viewBox="0 0 30 30" fill="none" xmlns="http://www.w3.org/2000/svg">
<path d="M6.45364 11.52C8.44583 10.5914 10.5461 10.0266 12.6073 9.77913C12.8306 9.74808 12.9227 9.90287 12.8996 10.0809C12.6381 11.6748 12.4611 13.292 12.3921 14.9242C12.3767 15.1101 12.2768 15.2337 12.0689 15.2725C10.9228 15.4972 9.80756 15.8529 8.57656 16.4176C9.6841 18.3522 11.0227 20.1235 12.4997 21.6093C12.669 21.7873 12.7688 21.9732 12.8151 22.2745C13.1996 24.7582 13.8691 27.2652 14.7615 29.6403C14.8151 29.7718 14.8151 29.865 14.7383 29.9421C14.6539 30.0193 14.5227 30.0193 14.3997 29.9421C5.47684 24.4797 0.0921431 14.6767 0 4.39391C0 4.14645 0.0848805 3.96063 0.292316 3.84466C5.03064 1.17556 10.3613 -0.108764 15.7151 0.00720423C15.9534 0.0149659 16.0383 0.224074 15.9457 0.417202C15.2072 1.95675 14.5917 3.52735 14.1074 5.09839C14.0534 5.28422 13.9381 5.37691 13.7384 5.38466C10.877 5.53168 8.09224 6.18184 5.53856 7.24928C5.72331 8.71167 6.03831 10.143 6.45364 11.52ZM16.3379 5.39972C16.1609 5.38421 16.0378 5.22167 16.0918 5.04406C16.6534 3.40362 17.2993 1.85631 18.0306 0.417202C18.115 0.246903 18.2611 0.177504 18.4613 0.200332C22.492 0.6569 26.3071 1.93347 29.7073 3.84466C29.9151 3.96063 30.0073 4.14645 29.9995 4.39391C29.9307 14.1275 25.0842 23.4429 16.923 29.0755C16.7691 29.1837 16.569 29.1222 16.5 28.944C15.9076 27.3424 15.4228 25.7175 15.077 24.1468C15.0306 23.9382 15.077 23.7757 15.2385 23.6515C20.1771 19.7364 23.6386 13.8951 24.4692 7.24883C21.9536 6.2042 19.2302 5.55451 16.3379 5.39972Z" fill="#0078FF"/>
</svg>
