<svg width="20" height="20" viewBox="0 0 20 20" fill="none" xmlns="http://www.w3.org/2000/svg">
<path d="M19.1242 12.2375L18.9342 11.6675H15.2808L15.0225 8.56747L15.3083 8.5258C15.6157 8.48061 15.9092 8.36747 16.1673 8.19463C16.4255 8.02179 16.6419 7.79359 16.8008 7.52662C16.9597 7.25964 17.0571 6.96062 17.086 6.65127C17.1148 6.34193 17.0743 6.03005 16.9675 5.73831C16.261 3.80694 14.8969 2.18613 13.1144 1.16035C11.332 0.134576 9.24525 -0.230611 7.2204 0.128891C5.19555 0.488393 3.36203 1.54961 2.04166 3.12627C0.721284 4.70294 -0.00155972 6.69429 2.527e-06 8.7508C0.108333 10.5495 0.331005 12.3395 0.666669 14.11C0.746065 14.5722 0.954281 15.0027 1.26739 15.3519C1.58049 15.7012 1.98578 15.9549 2.43667 16.0841C4.93126 16.7555 7.32739 17.75 9.56417 19.0425L10.1242 19.3858L12.845 16.6675H14.025L14.21 18.8883L14.6525 19.0916C16.0782 19.7036 17.6153 20.0131 19.1667 20.0008H20V19.1675C20.0515 16.8269 19.7563 14.4916 19.1242 12.2375ZM17.6983 13.3341C17.7917 13.7125 17.9125 14.2808 18.0242 15.0008H15.5583L15.4167 13.3341H17.6983ZM13.6083 11.6675H10.9908C10.9436 11.5276 10.9356 11.3774 10.9675 11.2333L11.3708 9.6208C11.4109 9.46049 11.4978 9.31571 11.6203 9.20487C11.7429 9.09402 11.8956 9.02212 12.0592 8.99831L13.37 8.80747L13.6083 11.6675ZM9.8675 17.2883C7.66378 16.0877 5.32778 15.1478 2.90667 14.4875C2.755 14.4457 2.61825 14.3619 2.51222 14.2457C2.40619 14.1295 2.33521 13.9857 2.3075 13.8308C1.98507 12.153 1.77102 10.4561 1.66667 8.7508C1.66514 7.08585 2.25015 5.47357 3.319 4.197C4.38786 2.92043 5.87223 2.06117 7.51154 1.77007C9.15085 1.47897 10.8403 1.77462 12.2833 2.60514C13.7264 3.43566 14.8307 4.74795 15.4025 6.31164C15.4249 6.37094 15.4334 6.43456 15.4275 6.49767C15.4216 6.56078 15.4014 6.6217 15.3683 6.67581C15.3366 6.72964 15.2931 6.77564 15.2412 6.8104C15.1893 6.84517 15.1302 6.8678 15.0683 6.87664L11.8183 7.34831C11.3272 7.41865 10.8683 7.63406 10.5004 7.96693C10.1324 8.29981 9.87232 8.73497 9.75334 9.21664L9.35 10.8291C9.19589 11.4426 9.28079 12.0918 9.5875 12.645L11.3375 15.8116L9.8675 17.2883ZM12.7958 15.0008L11.8742 13.3341H13.75L13.8883 15.0008H12.7958ZM15.7883 17.76L15.6975 16.6675H18.2258C18.27 17.1675 18.3033 17.715 18.3208 18.3C17.456 18.236 16.604 18.0544 15.7883 17.76ZM8.33334 13.3341C8.33334 13.499 8.28446 13.6601 8.19289 13.7971C8.10133 13.9342 7.97118 14.041 7.81891 14.104C7.66663 14.1671 7.49908 14.1836 7.33743 14.1515C7.17578 14.1193 7.02729 14.0399 6.91075 13.9234C6.7942 13.8069 6.71484 13.6584 6.68268 13.4967C6.65053 13.3351 6.66703 13.1675 6.7301 13.0152C6.79318 12.863 6.89999 12.7328 7.03703 12.6412C7.17407 12.5497 7.33519 12.5008 7.5 12.5008C7.72102 12.5008 7.93298 12.5886 8.08926 12.7449C8.24554 12.9012 8.33334 13.1131 8.33334 13.3341Z" fill="white"/>
</svg>
