<svg width="20" height="20" viewBox="0 0 20 20" fill="none" xmlns="http://www.w3.org/2000/svg">
<g clip-path="url(#clip0_2383_10551)">
<path d="M0.875828 12.2375L1.06583 11.6675H4.71916L4.97749 8.56747L4.69166 8.5258C4.38428 8.48061 4.09084 8.36747 3.83267 8.19463C3.5745 8.02179 3.3581 7.79359 3.19919 7.52662C3.04029 7.25964 2.94287 6.96062 2.91404 6.65127C2.8852 6.34193 2.92567 6.03005 3.0325 5.73831C3.73896 3.80694 5.10313 2.18613 6.88555 1.16035C8.66798 0.134576 10.7548 -0.230611 12.7796 0.128891C14.8044 0.488393 16.638 1.54961 17.9583 3.12627C19.2787 4.70294 20.0016 6.69429 20 8.7508C19.8917 10.5495 19.669 12.3395 19.3333 14.11C19.2539 14.5722 19.0457 15.0027 18.7326 15.3519C18.4195 15.7012 18.0142 15.9549 17.5633 16.0841C15.0687 16.7555 12.6726 17.75 10.4358 19.0425L9.87583 19.3858L7.155 16.6675H5.975L5.79 18.8883L5.3475 19.0916C3.92182 19.7036 2.38473 20.0131 0.833328 20.0008H-5.72205e-06V19.1675C-0.0514565 16.8269 0.243685 14.4916 0.875828 12.2375ZM2.30166 13.3341C2.20833 13.7125 2.0875 14.2808 1.97583 15.0008H4.44166L4.58333 13.3341H2.30166ZM6.39166 11.6675H9.00916C9.05636 11.5276 9.06443 11.3774 9.0325 11.2333L8.62916 9.6208C8.58908 9.46049 8.50224 9.31571 8.37967 9.20487C8.25711 9.09402 8.10436 9.02212 7.94083 8.99831L6.62999 8.80747L6.39166 11.6675ZM10.1325 17.2883C12.3362 16.0877 14.6722 15.1478 17.0933 14.4875C17.245 14.4457 17.3818 14.3619 17.4878 14.2457C17.5938 14.1295 17.6648 13.9857 17.6925 13.8308C18.0149 12.153 18.229 10.4561 18.3333 8.7508C18.3349 7.08585 17.7498 5.47357 16.681 4.197C15.6121 2.92043 14.1278 2.06117 12.4885 1.77007C10.8492 1.47897 9.15969 1.77462 7.71667 2.60514C6.27365 3.43566 5.1693 4.74795 4.5975 6.31164C4.57512 6.37094 4.56656 6.43456 4.57248 6.49767C4.5784 6.56078 4.59864 6.6217 4.63166 6.67581C4.66341 6.72964 4.70685 6.77564 4.75878 6.8104C4.81071 6.84517 4.8698 6.8678 4.93166 6.87664L8.18166 7.34831C8.6728 7.41865 9.13174 7.63406 9.49965 7.96693C9.86756 8.29981 10.1277 8.73497 10.2467 9.21664L10.65 10.8291C10.8041 11.4426 10.7192 12.0918 10.4125 12.645L8.6625 15.8116L10.1325 17.2883ZM7.20416 15.0008L8.12583 13.3341H6.25L6.11166 15.0008H7.20416ZM4.21166 17.76L4.3025 16.6675H1.77416C1.72999 17.1675 1.69666 17.715 1.67916 18.3C2.54397 18.236 3.396 18.0544 4.21166 17.76ZM11.6667 13.3341C11.6667 13.499 11.7155 13.6601 11.8071 13.7971C11.8987 13.9342 12.0288 14.041 12.1811 14.104C12.3334 14.1671 12.5009 14.1836 12.6626 14.1515C12.8242 14.1193 12.9727 14.0399 13.0893 13.9234C13.2058 13.8069 13.2852 13.6584 13.3173 13.4967C13.3495 13.3351 13.333 13.1675 13.2699 13.0152C13.2068 12.863 13.1 12.7328 12.963 12.6412C12.8259 12.5497 12.6648 12.5008 12.5 12.5008C12.279 12.5008 12.067 12.5886 11.9107 12.7449C11.7545 12.9012 11.6667 13.1131 11.6667 13.3341Z" fill="white"/>
</g>
<defs>
<clipPath id="clip0_2383_10551">
<rect width="20" height="20" fill="white" transform="matrix(-1 0 0 1 20 0)"/>
</clipPath>
</defs>
</svg>
